# xmcd CD Database Entry
#
# Track frame offsets:
# 150
# 96248
# 122030
# 142370
# 171258
# 193808
# 208868
# 228403
# 241393
#
# Disc length: 3517 seconds
#
# Revision: 1
# Processed by: cddbd v1.4PL0 Copyright (c) Steve Scherf et al.
# Submitted via: tcd 2.0b
#
DISCID=8b0dbb09
DTITLE=Corcobado - Ritmo de Sangre
DYEAR=1900
DGENRE=
TTITLE0=El corazón de tu cabeza
TTITLE1=Cruz de respiración
TTITLE2=Dos corazones
TTITLE3=De noche
TTITLE4=Adios estrellas de dolor
TTITLE5=Cicatrices en el cielo
TTITLE6=Quemaba Roma Nerón
TTITLE7=Miel de recuerdos
TTITLE8=Berrido de corazón
EXTD=
EXTT0=
EXTT1=
EXTT2=
EXTT3=
EXTT4=
EXTT5=
EXTT6=
EXTT7=
EXTT8=
PLAYORDER=
